<?xml version="1.0" encoding="UTF-8" standalone="no"?>
<!DOCTYPE svg PUBLIC "-//W3C//DTD SVG 1.1//EN" "http://www.w3.org/Graphics/SVG/1.1/DTD/svg11.dtd">
<svg width="100%" height="100%" viewBox="0 0 3334 843" version="1.1" xmlns="http://www.w3.org/2000/svg" xmlns:xlink="http://www.w3.org/1999/xlink" xml:space="preserve" xmlns:serif="http://www.serif.com/" style="fill-rule:evenodd;clip-rule:evenodd;stroke-linejoin:round;stroke-miterlimit:2;">
    <g transform="matrix(4.16667,0,0,4.16667,0,0)">
        <g id="LOGO" transform="matrix(1,0,0,0.938117,0,0)">
            <rect x="0" y="0" width="800" height="215.459" style="fill:none;"/>
            <g transform="matrix(0.223891,0,0,0.237902,-128.204,-184.515)">
                <path d="M617.281,815.917L617.281,1626.41L721.448,1626.41L721.448,815.917L617.281,815.917Z"/>
            </g>
            <g transform="matrix(0.223891,0,0,0.23866,-160.281,-185.747)">
                <path d="M1215.72,1053.29C1058.17,1053.29 930.26,1181.2 930.26,1338.76C930.26,1496.31 1058.17,1624.22 1215.72,1624.22C1373.27,1624.22 1501.18,1496.31 1501.18,1338.76C1501.18,1181.2 1373.27,1053.29 1215.72,1053.29ZM1215.72,1157.46C1315.78,1157.46 1397.02,1238.7 1397.02,1338.76C1397.02,1438.81 1315.78,1520.05 1215.72,1520.05C1115.66,1520.05 1034.43,1438.81 1034.43,1338.76C1034.43,1238.7 1115.66,1157.46 1215.72,1157.46Z"/>
            </g>
            <g transform="matrix(0.327932,0,0,0.349565,-268.163,-365.26)">
                <path d="M1668.26,1516.66C1646.01,1538.08 1615.79,1551.26 1582.5,1551.26C1514.23,1551.26 1458.79,1495.82 1458.79,1427.55C1458.79,1359.27 1514.23,1303.84 1582.5,1303.84C1617.5,1303.84 1649.11,1318.4 1671.62,1341.79C1685.26,1355.95 1707.83,1356.38 1721.99,1342.75C1736.16,1329.11 1736.59,1306.54 1722.95,1292.38C1687.48,1255.52 1637.65,1232.59 1582.5,1232.59C1474.9,1232.59 1387.54,1319.94 1387.54,1427.55C1387.54,1535.15 1474.9,1622.51 1582.5,1622.51C1634.96,1622.51 1682.61,1601.75 1717.67,1568C1731.84,1554.36 1732.27,1531.79 1718.63,1517.62C1705,1503.46 1682.43,1503.03 1668.26,1516.66Z"/>
            </g>
            <g transform="matrix(0.223891,0,0,0.170471,488.696,-74.8451)">
                <path d="M617.281,815.917L617.281,1626.41L721.448,1626.41L721.448,815.917L617.281,815.917Z"/>
            </g>
            <g transform="matrix(0.223891,0,0,0.23866,98.5319,-184.884)">
                <path d="M1215.72,1053.29C1058.17,1053.29 930.26,1181.2 930.26,1338.76C930.26,1496.31 1058.17,1624.22 1215.72,1624.22C1373.27,1624.22 1501.18,1496.31 1501.18,1338.76C1501.18,1181.2 1373.27,1053.29 1215.72,1053.29ZM1215.72,1157.46C1315.78,1157.46 1397.02,1238.7 1397.02,1338.76C1397.02,1438.81 1315.78,1520.05 1215.72,1520.05C1115.66,1520.05 1034.43,1438.81 1034.43,1338.76C1034.43,1238.7 1115.66,1157.46 1215.72,1157.46Z"/>
            </g>
            <g transform="matrix(0.223891,0,0,0.23866,455.69,-184.884)">
                <path d="M1215.72,1053.29C1058.17,1053.29 930.26,1181.2 930.26,1338.76C930.26,1496.31 1058.17,1624.22 1215.72,1624.22C1373.27,1624.22 1501.18,1496.31 1501.18,1338.76C1501.18,1181.2 1373.27,1053.29 1215.72,1053.29ZM1215.72,1157.46C1315.78,1157.46 1397.02,1238.7 1397.02,1338.76C1397.02,1438.81 1315.78,1520.05 1215.72,1520.05C1115.66,1520.05 1034.43,1438.81 1034.43,1338.76C1034.43,1238.7 1115.66,1157.46 1215.72,1157.46Z"/>
            </g>
            <g transform="matrix(0.327932,0,0,0.349565,-282.592,-78.6169)">
                <path d="M2535.78,460.857C2502.1,433.065 2458.92,416.358 2411.87,416.358C2304.31,416.358 2216.98,503.687 2216.98,611.252C2216.98,718.817 2304.31,806.146 2411.87,806.146C2458.92,806.146 2502.1,789.438 2535.78,761.647L2535.78,806.406L2606.9,806.406L2606.9,253.057L2535.78,253.057L2535.78,460.857ZM2411.87,487.476C2480.19,487.476 2535.65,542.938 2535.65,611.252C2535.65,679.566 2480.19,735.028 2411.87,735.028C2343.56,735.028 2288.1,679.566 2288.1,611.252C2288.1,542.938 2343.56,487.476 2411.87,487.476Z"/>
            </g>
            <g transform="matrix(0.327932,0,0,0.349565,423.527,-365.509)">
                <circle cx="655.726" cy="1112.2" r="39.146"/>
            </g>
            <g transform="matrix(0.327932,0,0,0.349565,384.508,-199.553)">
                <circle cx="655.726" cy="1112.2" r="39.146"/>
            </g>
        </g>
    </g>
</svg>
