<?xml version="1.0" encoding="UTF-8" standalone="no"?>
<!DOCTYPE svg PUBLIC "-//W3C//DTD SVG 1.1//EN" "http://www.w3.org/Graphics/SVG/1.1/DTD/svg11.dtd">
<svg width="100%" height="100%" viewBox="0 0 100 103" version="1.1" xmlns="http://www.w3.org/2000/svg" xmlns:xlink="http://www.w3.org/1999/xlink" xml:space="preserve" xmlns:serif="http://www.serif.com/" style="fill-rule:evenodd;clip-rule:evenodd;stroke-linejoin:round;stroke-miterlimit:2;">
    <g id="Artboard1" transform="matrix(0.258346,0,0,0.254221,-53.9385,-26.7034)">
        <rect x="208.784" y="105.04" width="385.135" height="401.266" style="fill:none;"/>
        <g transform="matrix(0.91205,0,0,0.92685,-1026.96,-1015.98)">
            <path d="M1668.26,1516.66C1646.01,1538.08 1615.79,1551.26 1582.5,1551.26C1514.23,1551.26 1458.79,1495.82 1458.79,1427.55C1458.79,1359.27 1514.23,1303.84 1582.5,1303.84C1617.5,1303.84 1649.11,1318.4 1671.62,1341.79C1685.26,1355.95 1707.83,1356.38 1721.99,1342.75C1736.16,1329.11 1736.59,1306.54 1722.95,1292.38C1687.48,1255.52 1637.65,1232.59 1582.5,1232.59C1474.9,1232.59 1387.54,1319.94 1387.54,1427.55C1387.54,1535.15 1474.9,1622.51 1582.5,1622.51C1634.96,1622.51 1682.61,1601.75 1717.67,1568C1731.84,1554.36 1732.27,1531.79 1718.63,1517.62C1705,1503.46 1682.43,1503.03 1668.26,1516.66Z" style="fill:url(#_Linear1);"/>
        </g>
        <g transform="matrix(0.91205,0,0,0.92685,-77.0044,-723.7)">
            <circle cx="655.726" cy="1112.2" r="39.146" style="fill:rgb(48,50,126);"/>
        </g>
        <g transform="matrix(0.91205,0,0,0.92685,-185.538,-723.7)">
            <circle cx="655.726" cy="1112.2" r="39.146" style="fill:rgb(21,127,61);"/>
        </g>
    </g>
    <defs>
        <linearGradient id="_Linear1" x1="0" y1="0" x2="1" y2="0" gradientUnits="userSpaceOnUse" gradientTransform="matrix(345.365,0,0,345.365,1387.54,1427.55)"><stop offset="0" style="stop-color:rgb(24,15,15);stop-opacity:1"/><stop offset="1" style="stop-color:rgb(48,50,126);stop-opacity:1"/></linearGradient>
    </defs>
</svg>
